<svg xmlns="http://www.w3.org/2000/svg" width="376" height="384" viewBox="0 0 376 384">
<style>text{font-family:system-ui,sans-serif;font-size:12px;fill:#222}.title{font-size:15px;font-weight:600}.sub{font-size:11px;fill:#555}</style>
<text x="188.0" y="24" text-anchor="middle" class="title">IDM @ epoch 600</text>
<text x="188.0" y="42" text-anchor="middle" class="sub">alpha=0 · puzzle 4×4 · 200→600 (gap&gt;0, n=16/16 완료)</text>
<text x="70" y="92.0" text-anchor="end" class="sub">0.9</text>
<rect x="80" y="56" width="64" height="64" fill="rgb(255,245,235)" stroke="#bbb"/>
<text x="112.0" y="92.0" text-anchor="middle" font-size="12" fill="#222">0%</text>
<rect x="144" y="56" width="64" height="64" fill="rgb(255,245,235)" stroke="#bbb"/>
<text x="176.0" y="92.0" text-anchor="middle" font-size="12" fill="#222">0%</text>
<rect x="208" y="56" width="64" height="64" fill="rgb(255,245,235)" stroke="#bbb"/>
<text x="240.0" y="92.0" text-anchor="middle" font-size="12" fill="#222">0%</text>
<rect x="272" y="56" width="64" height="64" fill="rgb(255,245,235)" stroke="#bbb"/>
<text x="304.0" y="92.0" text-anchor="middle" font-size="12" fill="#222">0%</text>
<text x="70" y="156.0" text-anchor="end" class="sub">0.8</text>
<rect x="80" y="120" width="64" height="64" fill="rgb(255,245,235)" stroke="#bbb"/>
<text x="112.0" y="156.0" text-anchor="middle" font-size="12" fill="#222">0%</text>
<rect x="144" y="120" width="64" height="64" fill="rgb(255,245,235)" stroke="#bbb"/>
<text x="176.0" y="156.0" text-anchor="middle" font-size="12" fill="#222">0%</text>
<rect x="208" y="120" width="64" height="64" fill="rgb(255,245,235)" stroke="#bbb"/>
<text x="240.0" y="156.0" text-anchor="middle" font-size="12" fill="#222">0%</text>
<rect x="272" y="120" width="64" height="64" fill="rgb(255,245,235)" stroke="#bbb"/>
<text x="304.0" y="156.0" text-anchor="middle" font-size="12" fill="#222">0%</text>
<text x="70" y="220.0" text-anchor="end" class="sub">0.7</text>
<rect x="80" y="184" width="64" height="64" fill="rgb(255,245,235)" stroke="#bbb"/>
<text x="112.0" y="220.0" text-anchor="middle" font-size="12" fill="#222">0%</text>
<rect x="144" y="184" width="64" height="64" fill="rgb(255,245,235)" stroke="#bbb"/>
<text x="176.0" y="220.0" text-anchor="middle" font-size="12" fill="#222">0%</text>
<rect x="208" y="184" width="64" height="64" fill="rgb(255,245,235)" stroke="#bbb"/>
<text x="240.0" y="220.0" text-anchor="middle" font-size="12" fill="#222">0%</text>
<rect x="272" y="184" width="64" height="64" fill="rgb(255,245,235)" stroke="#bbb"/>
<text x="304.0" y="220.0" text-anchor="middle" font-size="12" fill="#222">0%</text>
<text x="70" y="284.0" text-anchor="end" class="sub">0.6</text>
<rect x="80" y="248" width="64" height="64" fill="rgb(255,245,235)" stroke="#bbb"/>
<text x="112.0" y="284.0" text-anchor="middle" font-size="12" fill="#222">0%</text>
<rect x="144" y="248" width="64" height="64" fill="rgb(255,245,235)" stroke="#bbb"/>
<text x="176.0" y="284.0" text-anchor="middle" font-size="12" fill="#222">0%</text>
<rect x="208" y="248" width="64" height="64" fill="rgb(255,245,235)" stroke="#bbb"/>
<text x="240.0" y="284.0" text-anchor="middle" font-size="12" fill="#222">0%</text>
<rect x="272" y="248" width="64" height="64" fill="rgb(255,245,235)" stroke="#bbb"/>
<text x="304.0" y="284.0" text-anchor="middle" font-size="12" fill="#222">0%</text>
<text x="112.0" y="352.0" text-anchor="middle" class="sub">gap 1</text>
<text x="176.0" y="352.0" text-anchor="middle" class="sub">gap 5</text>
<text x="240.0" y="352.0" text-anchor="middle" class="sub">gap 10</text>
<text x="304.0" y="352.0" text-anchor="middle" class="sub">gap 20</text>
<rect x="348" y="56" width="14" height="1" fill="rgb(245,108,50)"/>
<rect x="348" y="57" width="14" height="1" fill="rgb(245,108,50)"/>
<rect x="348" y="58" width="14" height="1" fill="rgb(245,109,51)"/>
<rect x="348" y="59" width="14" height="1" fill="rgb(245,109,52)"/>
<rect x="348" y="60" width="14" height="1" fill="rgb(245,110,52)"/>
<rect x="348" y="61" width="14" height="1" fill="rgb(245,110,53)"/>
<rect x="348" y="62" width="14" height="1" fill="rgb(245,111,54)"/>
<rect x="348" y="63" width="14" height="1" fill="rgb(245,111,55)"/>
<rect x="348" y="64" width="14" height="1" fill="rgb(245,112,55)"/>
<rect x="348" y="65" width="14" height="1" fill="rgb(245,112,56)"/>
<rect x="348" y="66" width="14" height="1" fill="rgb(245,113,57)"/>
<rect x="348" y="67" width="14" height="1" fill="rgb(245,113,57)"/>
<rect x="348" y="68" width="14" height="1" fill="rgb(245,114,58)"/>
<rect x="348" y="69" width="14" height="1" fill="rgb(245,114,59)"/>
<rect x="348" y="70" width="14" height="1" fill="rgb(245,115,60)"/>
<rect x="348" y="71" width="14" height="1" fill="rgb(245,116,60)"/>
<rect x="348" y="72" width="14" height="1" fill="rgb(245,116,61)"/>
<rect x="348" y="73" width="14" height="1" fill="rgb(245,117,62)"/>
<rect x="348" y="74" width="14" height="1" fill="rgb(245,117,63)"/>
<rect x="348" y="75" width="14" height="1" fill="rgb(245,118,63)"/>
<rect x="348" y="76" width="14" height="1" fill="rgb(245,118,64)"/>
<rect x="348" y="77" width="14" height="1" fill="rgb(245,119,65)"/>
<rect x="348" y="78" width="14" height="1" fill="rgb(245,119,65)"/>
<rect x="348" y="79" width="14" height="1" fill="rgb(245,120,66)"/>
<rect x="348" y="80" width="14" height="1" fill="rgb(245,120,67)"/>
<rect x="348" y="81" width="14" height="1" fill="rgb(245,121,68)"/>
<rect x="348" y="82" width="14" height="1" fill="rgb(246,121,68)"/>
<rect x="348" y="83" width="14" height="1" fill="rgb(246,122,69)"/>
<rect x="348" y="84" width="14" height="1" fill="rgb(246,123,70)"/>
<rect x="348" y="85" width="14" height="1" fill="rgb(246,123,71)"/>
<rect x="348" y="86" width="14" height="1" fill="rgb(246,124,71)"/>
<rect x="348" y="87" width="14" height="1" fill="rgb(246,124,72)"/>
<rect x="348" y="88" width="14" height="1" fill="rgb(246,125,73)"/>
<rect x="348" y="89" width="14" height="1" fill="rgb(246,125,73)"/>
<rect x="348" y="90" width="14" height="1" fill="rgb(246,126,74)"/>
<rect x="348" y="91" width="14" height="1" fill="rgb(246,126,75)"/>
<rect x="348" y="92" width="14" height="1" fill="rgb(246,127,76)"/>
<rect x="348" y="93" width="14" height="1" fill="rgb(246,127,76)"/>
<rect x="348" y="94" width="14" height="1" fill="rgb(246,128,77)"/>
<rect x="348" y="95" width="14" height="1" fill="rgb(246,128,78)"/>
<rect x="348" y="96" width="14" height="1" fill="rgb(246,129,79)"/>
<rect x="348" y="97" width="14" height="1" fill="rgb(246,130,79)"/>
<rect x="348" y="98" width="14" height="1" fill="rgb(246,130,80)"/>
<rect x="348" y="99" width="14" height="1" fill="rgb(246,131,81)"/>
<rect x="348" y="100" width="14" height="1" fill="rgb(246,131,81)"/>
<rect x="348" y="101" width="14" height="1" fill="rgb(246,132,82)"/>
<rect x="348" y="102" width="14" height="1" fill="rgb(246,132,83)"/>
<rect x="348" y="103" width="14" height="1" fill="rgb(246,133,84)"/>
<rect x="348" y="104" width="14" height="1" fill="rgb(246,133,84)"/>
<rect x="348" y="105" width="14" height="1" fill="rgb(246,134,85)"/>
<rect x="348" y="106" width="14" height="1" fill="rgb(246,134,86)"/>
<rect x="348" y="107" width="14" height="1" fill="rgb(247,135,87)"/>
<rect x="348" y="108" width="14" height="1" fill="rgb(247,135,87)"/>
<rect x="348" y="109" width="14" height="1" fill="rgb(247,136,88)"/>
<rect x="348" y="110" width="14" height="1" fill="rgb(247,137,89)"/>
<rect x="348" y="111" width="14" height="1" fill="rgb(247,137,89)"/>
<rect x="348" y="112" width="14" height="1" fill="rgb(247,138,90)"/>
<rect x="348" y="113" width="14" height="1" fill="rgb(247,138,91)"/>
<rect x="348" y="114" width="14" height="1" fill="rgb(247,139,92)"/>
<rect x="348" y="115" width="14" height="1" fill="rgb(247,139,92)"/>
<rect x="348" y="116" width="14" height="1" fill="rgb(247,140,93)"/>
<rect x="348" y="117" width="14" height="1" fill="rgb(247,140,94)"/>
<rect x="348" y="118" width="14" height="1" fill="rgb(247,141,94)"/>
<rect x="348" y="119" width="14" height="1" fill="rgb(247,141,95)"/>
<rect x="348" y="120" width="14" height="1" fill="rgb(247,142,96)"/>
<rect x="348" y="121" width="14" height="1" fill="rgb(247,142,97)"/>
<rect x="348" y="122" width="14" height="1" fill="rgb(247,143,97)"/>
<rect x="348" y="123" width="14" height="1" fill="rgb(247,143,98)"/>
<rect x="348" y="124" width="14" height="1" fill="rgb(247,144,99)"/>
<rect x="348" y="125" width="14" height="1" fill="rgb(247,145,100)"/>
<rect x="348" y="126" width="14" height="1" fill="rgb(247,145,100)"/>
<rect x="348" y="127" width="14" height="1" fill="rgb(247,146,101)"/>
<rect x="348" y="128" width="14" height="1" fill="rgb(247,146,102)"/>
<rect x="348" y="129" width="14" height="1" fill="rgb(247,147,102)"/>
<rect x="348" y="130" width="14" height="1" fill="rgb(247,147,103)"/>
<rect x="348" y="131" width="14" height="1" fill="rgb(247,148,104)"/>
<rect x="348" y="132" width="14" height="1" fill="rgb(247,148,105)"/>
<rect x="348" y="133" width="14" height="1" fill="rgb(248,149,105)"/>
<rect x="348" y="134" width="14" height="1" fill="rgb(248,149,106)"/>
<rect x="348" y="135" width="14" height="1" fill="rgb(248,150,107)"/>
<rect x="348" y="136" width="14" height="1" fill="rgb(248,150,108)"/>
<rect x="348" y="137" width="14" height="1" fill="rgb(248,151,108)"/>
<rect x="348" y="138" width="14" height="1" fill="rgb(248,152,109)"/>
<rect x="348" y="139" width="14" height="1" fill="rgb(248,152,110)"/>
<rect x="348" y="140" width="14" height="1" fill="rgb(248,153,110)"/>
<rect x="348" y="141" width="14" height="1" fill="rgb(248,153,111)"/>
<rect x="348" y="142" width="14" height="1" fill="rgb(248,154,112)"/>
<rect x="348" y="143" width="14" height="1" fill="rgb(248,154,113)"/>
<rect x="348" y="144" width="14" height="1" fill="rgb(248,155,113)"/>
<rect x="348" y="145" width="14" height="1" fill="rgb(248,155,114)"/>
<rect x="348" y="146" width="14" height="1" fill="rgb(248,156,115)"/>
<rect x="348" y="147" width="14" height="1" fill="rgb(248,156,116)"/>
<rect x="348" y="148" width="14" height="1" fill="rgb(248,157,116)"/>
<rect x="348" y="149" width="14" height="1" fill="rgb(248,157,117)"/>
<rect x="348" y="150" width="14" height="1" fill="rgb(248,158,118)"/>
<rect x="348" y="151" width="14" height="1" fill="rgb(248,159,118)"/>
<rect x="348" y="152" width="14" height="1" fill="rgb(248,159,119)"/>
<rect x="348" y="153" width="14" height="1" fill="rgb(248,160,120)"/>
<rect x="348" y="154" width="14" height="1" fill="rgb(248,160,121)"/>
<rect x="348" y="155" width="14" height="1" fill="rgb(248,161,121)"/>
<rect x="348" y="156" width="14" height="1" fill="rgb(248,161,122)"/>
<rect x="348" y="157" width="14" height="1" fill="rgb(248,162,123)"/>
<rect x="348" y="158" width="14" height="1" fill="rgb(249,162,124)"/>
<rect x="348" y="159" width="14" height="1" fill="rgb(249,163,124)"/>
<rect x="348" y="160" width="14" height="1" fill="rgb(249,163,125)"/>
<rect x="348" y="161" width="14" height="1" fill="rgb(249,164,126)"/>
<rect x="348" y="162" width="14" height="1" fill="rgb(249,164,126)"/>
<rect x="348" y="163" width="14" height="1" fill="rgb(249,165,127)"/>
<rect x="348" y="164" width="14" height="1" fill="rgb(249,166,128)"/>
<rect x="348" y="165" width="14" height="1" fill="rgb(249,166,129)"/>
<rect x="348" y="166" width="14" height="1" fill="rgb(249,167,129)"/>
<rect x="348" y="167" width="14" height="1" fill="rgb(249,167,130)"/>
<rect x="348" y="168" width="14" height="1" fill="rgb(249,168,131)"/>
<rect x="348" y="169" width="14" height="1" fill="rgb(249,168,131)"/>
<rect x="348" y="170" width="14" height="1" fill="rgb(249,169,132)"/>
<rect x="348" y="171" width="14" height="1" fill="rgb(249,169,133)"/>
<rect x="348" y="172" width="14" height="1" fill="rgb(249,170,134)"/>
<rect x="348" y="173" width="14" height="1" fill="rgb(249,170,134)"/>
<rect x="348" y="174" width="14" height="1" fill="rgb(249,171,135)"/>
<rect x="348" y="175" width="14" height="1" fill="rgb(249,171,136)"/>
<rect x="348" y="176" width="14" height="1" fill="rgb(249,172,137)"/>
<rect x="348" y="177" width="14" height="1" fill="rgb(249,173,137)"/>
<rect x="348" y="178" width="14" height="1" fill="rgb(249,173,138)"/>
<rect x="348" y="179" width="14" height="1" fill="rgb(249,174,139)"/>
<rect x="348" y="180" width="14" height="1" fill="rgb(249,174,139)"/>
<rect x="348" y="181" width="14" height="1" fill="rgb(249,175,140)"/>
<rect x="348" y="182" width="14" height="1" fill="rgb(249,175,141)"/>
<rect x="348" y="183" width="14" height="1" fill="rgb(249,176,142)"/>
<rect x="348" y="184" width="14" height="1" fill="rgb(250,176,142)"/>
<rect x="348" y="185" width="14" height="1" fill="rgb(250,177,143)"/>
<rect x="348" y="186" width="14" height="1" fill="rgb(250,177,144)"/>
<rect x="348" y="187" width="14" height="1" fill="rgb(250,178,145)"/>
<rect x="348" y="188" width="14" height="1" fill="rgb(250,178,145)"/>
<rect x="348" y="189" width="14" height="1" fill="rgb(250,179,146)"/>
<rect x="348" y="190" width="14" height="1" fill="rgb(250,179,147)"/>
<rect x="348" y="191" width="14" height="1" fill="rgb(250,180,147)"/>
<rect x="348" y="192" width="14" height="1" fill="rgb(250,181,148)"/>
<rect x="348" y="193" width="14" height="1" fill="rgb(250,181,149)"/>
<rect x="348" y="194" width="14" height="1" fill="rgb(250,182,150)"/>
<rect x="348" y="195" width="14" height="1" fill="rgb(250,182,150)"/>
<rect x="348" y="196" width="14" height="1" fill="rgb(250,183,151)"/>
<rect x="348" y="197" width="14" height="1" fill="rgb(250,183,152)"/>
<rect x="348" y="198" width="14" height="1" fill="rgb(250,184,153)"/>
<rect x="348" y="199" width="14" height="1" fill="rgb(250,184,153)"/>
<rect x="348" y="200" width="14" height="1" fill="rgb(250,185,154)"/>
<rect x="348" y="201" width="14" height="1" fill="rgb(250,185,155)"/>
<rect x="348" y="202" width="14" height="1" fill="rgb(250,186,155)"/>
<rect x="348" y="203" width="14" height="1" fill="rgb(250,186,156)"/>
<rect x="348" y="204" width="14" height="1" fill="rgb(250,187,157)"/>
<rect x="348" y="205" width="14" height="1" fill="rgb(250,188,158)"/>
<rect x="348" y="206" width="14" height="1" fill="rgb(250,188,158)"/>
<rect x="348" y="207" width="14" height="1" fill="rgb(250,189,159)"/>
<rect x="348" y="208" width="14" height="1" fill="rgb(250,189,160)"/>
<rect x="348" y="209" width="14" height="1" fill="rgb(251,190,161)"/>
<rect x="348" y="210" width="14" height="1" fill="rgb(251,190,161)"/>
<rect x="348" y="211" width="14" height="1" fill="rgb(251,191,162)"/>
<rect x="348" y="212" width="14" height="1" fill="rgb(251,191,163)"/>
<rect x="348" y="213" width="14" height="1" fill="rgb(251,192,163)"/>
<rect x="348" y="214" width="14" height="1" fill="rgb(251,192,164)"/>
<rect x="348" y="215" width="14" height="1" fill="rgb(251,193,165)"/>
<rect x="348" y="216" width="14" height="1" fill="rgb(251,193,166)"/>
<rect x="348" y="217" width="14" height="1" fill="rgb(251,194,166)"/>
<rect x="348" y="218" width="14" height="1" fill="rgb(251,195,167)"/>
<rect x="348" y="219" width="14" height="1" fill="rgb(251,195,168)"/>
<rect x="348" y="220" width="14" height="1" fill="rgb(251,196,168)"/>
<rect x="348" y="221" width="14" height="1" fill="rgb(251,196,169)"/>
<rect x="348" y="222" width="14" height="1" fill="rgb(251,197,170)"/>
<rect x="348" y="223" width="14" height="1" fill="rgb(251,197,171)"/>
<rect x="348" y="224" width="14" height="1" fill="rgb(251,198,171)"/>
<rect x="348" y="225" width="14" height="1" fill="rgb(251,198,172)"/>
<rect x="348" y="226" width="14" height="1" fill="rgb(251,199,173)"/>
<rect x="348" y="227" width="14" height="1" fill="rgb(251,199,174)"/>
<rect x="348" y="228" width="14" height="1" fill="rgb(251,200,174)"/>
<rect x="348" y="229" width="14" height="1" fill="rgb(251,200,175)"/>
<rect x="348" y="230" width="14" height="1" fill="rgb(251,201,176)"/>
<rect x="348" y="231" width="14" height="1" fill="rgb(251,202,176)"/>
<rect x="348" y="232" width="14" height="1" fill="rgb(251,202,177)"/>
<rect x="348" y="233" width="14" height="1" fill="rgb(251,203,178)"/>
<rect x="348" y="234" width="14" height="1" fill="rgb(251,203,179)"/>
<rect x="348" y="235" width="14" height="1" fill="rgb(252,204,179)"/>
<rect x="348" y="236" width="14" height="1" fill="rgb(252,204,180)"/>
<rect x="348" y="237" width="14" height="1" fill="rgb(252,205,181)"/>
<rect x="348" y="238" width="14" height="1" fill="rgb(252,205,182)"/>
<rect x="348" y="239" width="14" height="1" fill="rgb(252,206,182)"/>
<rect x="348" y="240" width="14" height="1" fill="rgb(252,206,183)"/>
<rect x="348" y="241" width="14" height="1" fill="rgb(252,207,184)"/>
<rect x="348" y="242" width="14" height="1" fill="rgb(252,207,184)"/>
<rect x="348" y="243" width="14" height="1" fill="rgb(252,208,185)"/>
<rect x="348" y="244" width="14" height="1" fill="rgb(252,209,186)"/>
<rect x="348" y="245" width="14" height="1" fill="rgb(252,209,187)"/>
<rect x="348" y="246" width="14" height="1" fill="rgb(252,210,187)"/>
<rect x="348" y="247" width="14" height="1" fill="rgb(252,210,188)"/>
<rect x="348" y="248" width="14" height="1" fill="rgb(252,211,189)"/>
<rect x="348" y="249" width="14" height="1" fill="rgb(252,211,190)"/>
<rect x="348" y="250" width="14" height="1" fill="rgb(252,212,190)"/>
<rect x="348" y="251" width="14" height="1" fill="rgb(252,212,191)"/>
<rect x="348" y="252" width="14" height="1" fill="rgb(252,213,192)"/>
<rect x="348" y="253" width="14" height="1" fill="rgb(252,213,192)"/>
<rect x="348" y="254" width="14" height="1" fill="rgb(252,214,193)"/>
<rect x="348" y="255" width="14" height="1" fill="rgb(252,214,194)"/>
<rect x="348" y="256" width="14" height="1" fill="rgb(252,215,195)"/>
<rect x="348" y="257" width="14" height="1" fill="rgb(252,215,195)"/>
<rect x="348" y="258" width="14" height="1" fill="rgb(252,216,196)"/>
<rect x="348" y="259" width="14" height="1" fill="rgb(252,217,197)"/>
<rect x="348" y="260" width="14" height="1" fill="rgb(253,217,198)"/>
<rect x="348" y="261" width="14" height="1" fill="rgb(253,218,198)"/>
<rect x="348" y="262" width="14" height="1" fill="rgb(253,218,199)"/>
<rect x="348" y="263" width="14" height="1" fill="rgb(253,219,200)"/>
<rect x="348" y="264" width="14" height="1" fill="rgb(253,219,200)"/>
<rect x="348" y="265" width="14" height="1" fill="rgb(253,220,201)"/>
<rect x="348" y="266" width="14" height="1" fill="rgb(253,220,202)"/>
<rect x="348" y="267" width="14" height="1" fill="rgb(253,221,203)"/>
<rect x="348" y="268" width="14" height="1" fill="rgb(253,221,203)"/>
<rect x="348" y="269" width="14" height="1" fill="rgb(253,222,204)"/>
<rect x="348" y="270" width="14" height="1" fill="rgb(253,222,205)"/>
<rect x="348" y="271" width="14" height="1" fill="rgb(253,223,205)"/>
<rect x="348" y="272" width="14" height="1" fill="rgb(253,224,206)"/>
<rect x="348" y="273" width="14" height="1" fill="rgb(253,224,207)"/>
<rect x="348" y="274" width="14" height="1" fill="rgb(253,225,208)"/>
<rect x="348" y="275" width="14" height="1" fill="rgb(253,225,208)"/>
<rect x="348" y="276" width="14" height="1" fill="rgb(253,226,209)"/>
<rect x="348" y="277" width="14" height="1" fill="rgb(253,226,210)"/>
<rect x="348" y="278" width="14" height="1" fill="rgb(253,227,211)"/>
<rect x="348" y="279" width="14" height="1" fill="rgb(253,227,211)"/>
<rect x="348" y="280" width="14" height="1" fill="rgb(253,228,212)"/>
<rect x="348" y="281" width="14" height="1" fill="rgb(253,228,213)"/>
<rect x="348" y="282" width="14" height="1" fill="rgb(253,229,213)"/>
<rect x="348" y="283" width="14" height="1" fill="rgb(253,229,214)"/>
<rect x="348" y="284" width="14" height="1" fill="rgb(253,230,215)"/>
<rect x="348" y="285" width="14" height="1" fill="rgb(253,231,216)"/>
<rect x="348" y="286" width="14" height="1" fill="rgb(254,231,216)"/>
<rect x="348" y="287" width="14" height="1" fill="rgb(254,232,217)"/>
<rect x="348" y="288" width="14" height="1" fill="rgb(254,232,218)"/>
<rect x="348" y="289" width="14" height="1" fill="rgb(254,233,219)"/>
<rect x="348" y="290" width="14" height="1" fill="rgb(254,233,219)"/>
<rect x="348" y="291" width="14" height="1" fill="rgb(254,234,220)"/>
<rect x="348" y="292" width="14" height="1" fill="rgb(254,234,221)"/>
<rect x="348" y="293" width="14" height="1" fill="rgb(254,235,221)"/>
<rect x="348" y="294" width="14" height="1" fill="rgb(254,235,222)"/>
<rect x="348" y="295" width="14" height="1" fill="rgb(254,236,223)"/>
<rect x="348" y="296" width="14" height="1" fill="rgb(254,236,224)"/>
<rect x="348" y="297" width="14" height="1" fill="rgb(254,237,224)"/>
<rect x="348" y="298" width="14" height="1" fill="rgb(254,238,225)"/>
<rect x="348" y="299" width="14" height="1" fill="rgb(254,238,226)"/>
<rect x="348" y="300" width="14" height="1" fill="rgb(254,239,227)"/>
<rect x="348" y="301" width="14" height="1" fill="rgb(254,239,227)"/>
<rect x="348" y="302" width="14" height="1" fill="rgb(254,240,228)"/>
<rect x="348" y="303" width="14" height="1" fill="rgb(254,240,229)"/>
<rect x="348" y="304" width="14" height="1" fill="rgb(254,241,229)"/>
<rect x="348" y="305" width="14" height="1" fill="rgb(254,241,230)"/>
<rect x="348" y="306" width="14" height="1" fill="rgb(254,242,231)"/>
<rect x="348" y="307" width="14" height="1" fill="rgb(254,242,232)"/>
<rect x="348" y="308" width="14" height="1" fill="rgb(254,243,232)"/>
<rect x="348" y="309" width="14" height="1" fill="rgb(254,243,233)"/>
<rect x="348" y="310" width="14" height="1" fill="rgb(254,244,234)"/>
<rect x="348" y="311" width="14" height="1" fill="rgb(255,245,235)"/>
<text x="355.0" y="50.0" text-anchor="middle" class="sub">1%</text>
<text x="355.0" y="326.0" text-anchor="middle" class="sub">0%</text>
</svg>