<svg xmlns="http://www.w3.org/2000/svg" width="384" height="368" viewBox="0 0 384 368">
<style>text{font-family:system-ui,sans-serif;font-size:12px;fill:#222}.title{font-size:15px;font-weight:600}.sub{font-size:11px;fill:#555}</style>
<text x="192.0" y="24" text-anchor="middle" class="title">IDM @ epoch 600</text>
<text x="192.0" y="42" text-anchor="middle" class="sub">alpha=0 · puzzle 3×3 · resume 400→600 (gap>0, n=15)</text>
<text x="70" y="92.0" text-anchor="end" class="sub">0.9</text>
<rect x="80" y="56" width="64" height="64" fill="rgb(250,120,53)" stroke="#bbb"/>
<text x="112.0" y="93.0" text-anchor="middle" font-size="12" fill="#fff">13%</text>
<rect x="144" y="56" width="64" height="64" fill="rgb(250,122,54)" stroke="#bbb"/>
<text x="176.0" y="93.0" text-anchor="middle" font-size="12" fill="#fff">12%</text>
<rect x="208" y="56" width="64" height="64" fill="rgb(249,118,53)" stroke="#bbb"/>
<text x="240.0" y="93.0" text-anchor="middle" font-size="12" fill="#fff">14%</text>
<rect x="272" y="56" width="64" height="64" fill="rgb(250,122,54)" stroke="#bbb"/>
<text x="304.0" y="93.0" text-anchor="middle" font-size="12" fill="#fff">12%</text>
<text x="70" y="156.0" text-anchor="end" class="sub">0.8</text>
<rect x="80" y="120" width="64" height="64" fill="rgb(254,228,213)" stroke="#bbb"/>
<text x="112.0" y="157.0" text-anchor="middle" font-size="12" fill="#222">2%</text>
<rect x="144" y="120" width="64" height="64" fill="rgb(251,124,55)" stroke="#bbb"/>
<text x="176.0" y="157.0" text-anchor="middle" font-size="12" fill="#fff">11%</text>
<rect x="208" y="120" width="64" height="64" fill="rgb(245,108,50)" stroke="#bbb"/>
<text x="240.0" y="157.0" text-anchor="middle" font-size="12" fill="#fff">19%</text>
<rect x="272" y="120" width="64" height="64" fill="rgb(250,122,54)" stroke="#bbb"/>
<text x="304.0" y="157.0" text-anchor="middle" font-size="12" fill="#fff">12%</text>
<text x="70" y="220.0" text-anchor="end" class="sub">0.7</text>
<rect x="80" y="184" width="64" height="64" fill="rgb(253,174,129)" stroke="#bbb"/>
<text x="112.0" y="221.0" text-anchor="middle" font-size="12" fill="#222">6%</text>
<rect x="144" y="184" width="64" height="64" fill="rgb(249,118,53)" stroke="#bbb"/>
<text x="176.0" y="221.0" text-anchor="middle" font-size="12" fill="#fff">14%</text>
<rect x="208" y="184" width="64" height="64" fill="rgb(250,122,54)" stroke="#bbb"/>
<text x="240.0" y="221.0" text-anchor="middle" font-size="12" fill="#fff">12%</text>
<rect x="272" y="184" width="64" height="64" fill="rgb(240,240,240)" stroke="#bbb"/>
<text x="304.0" y="221.0" text-anchor="middle" font-size="12" fill="#999">—</text>
<text x="70" y="284.0" text-anchor="end" class="sub">0.6</text>
<rect x="80" y="248" width="64" height="64" fill="rgb(253,148,87)" stroke="#bbb"/>
<text x="112.0" y="285.0" text-anchor="middle" font-size="12" fill="#222">8%</text>
<rect x="144" y="248" width="64" height="64" fill="rgb(250,122,54)" stroke="#bbb"/>
<text x="176.0" y="285.0" text-anchor="middle" font-size="12" fill="#fff">12%</text>
<rect x="208" y="248" width="64" height="64" fill="rgb(250,122,54)" stroke="#bbb"/>
<text x="240.0" y="285.0" text-anchor="middle" font-size="12" fill="#fff">12%</text>
<rect x="272" y="248" width="64" height="64" fill="rgb(248,116,52)" stroke="#bbb"/>
<text x="304.0" y="285.0" text-anchor="middle" font-size="12" fill="#fff">15%</text>
<text x="112.0" y="336.0" text-anchor="middle" class="sub">gap 1</text>
<text x="176.0" y="336.0" text-anchor="middle" class="sub">gap 5</text>
<text x="240.0" y="336.0" text-anchor="middle" class="sub">gap 10</text>
<text x="304.0" y="336.0" text-anchor="middle" class="sub">gap 20</text>
<rect x="350" y="56" width="14" height="1" fill="rgb(245,108,50)"/>
<rect x="350" y="57" width="14" height="1" fill="rgb(245,108,50)"/>
<rect x="350" y="58" width="14" height="1" fill="rgb(245,108,50)"/>
<rect x="350" y="59" width="14" height="1" fill="rgb(245,108,50)"/>
<rect x="350" y="60" width="14" height="1" fill="rgb(245,108,50)"/>
<rect x="350" y="61" width="14" height="1" fill="rgb(245,108,50)"/>
<rect x="350" y="62" width="14" height="1" fill="rgb(245,108,50)"/>
<rect x="350" y="63" width="14" height="1" fill="rgb(245,109,50)"/>
<rect x="350" y="64" width="14" height="1" fill="rgb(245,109,50)"/>
<rect x="350" y="65" width="14" height="1" fill="rgb(245,109,50)"/>
<rect x="350" y="66" width="14" height="1" fill="rgb(245,109,50)"/>
<rect x="350" y="67" width="14" height="1" fill="rgb(245,109,50)"/>
<rect x="350" y="68" width="14" height="1" fill="rgb(245,109,50)"/>
<rect x="350" y="69" width="14" height="1" fill="rgb(245,110,50)"/>
<rect x="350" y="70" width="14" height="1" fill="rgb(245,110,50)"/>
<rect x="350" y="71" width="14" height="1" fill="rgb(245,110,50)"/>
<rect x="350" y="72" width="14" height="1" fill="rgb(246,110,50)"/>
<rect x="350" y="73" width="14" height="1" fill="rgb(246,110,50)"/>
<rect x="350" y="74" width="14" height="1" fill="rgb(246,110,50)"/>
<rect x="350" y="75" width="14" height="1" fill="rgb(246,110,50)"/>
<rect x="350" y="76" width="14" height="1" fill="rgb(246,111,50)"/>
<rect x="350" y="77" width="14" height="1" fill="rgb(246,111,50)"/>
<rect x="350" y="78" width="14" height="1" fill="rgb(246,111,51)"/>
<rect x="350" y="79" width="14" height="1" fill="rgb(246,111,51)"/>
<rect x="350" y="80" width="14" height="1" fill="rgb(246,111,51)"/>
<rect x="350" y="81" width="14" height="1" fill="rgb(246,111,51)"/>
<rect x="350" y="82" width="14" height="1" fill="rgb(246,112,51)"/>
<rect x="350" y="83" width="14" height="1" fill="rgb(246,112,51)"/>
<rect x="350" y="84" width="14" height="1" fill="rgb(246,112,51)"/>
<rect x="350" y="85" width="14" height="1" fill="rgb(246,112,51)"/>
<rect x="350" y="86" width="14" height="1" fill="rgb(246,112,51)"/>
<rect x="350" y="87" width="14" height="1" fill="rgb(246,112,51)"/>
<rect x="350" y="88" width="14" height="1" fill="rgb(247,113,51)"/>
<rect x="350" y="89" width="14" height="1" fill="rgb(247,113,51)"/>
<rect x="350" y="90" width="14" height="1" fill="rgb(247,113,51)"/>
<rect x="350" y="91" width="14" height="1" fill="rgb(247,113,51)"/>
<rect x="350" y="92" width="14" height="1" fill="rgb(247,113,51)"/>
<rect x="350" y="93" width="14" height="1" fill="rgb(247,113,51)"/>
<rect x="350" y="94" width="14" height="1" fill="rgb(247,113,51)"/>
<rect x="350" y="95" width="14" height="1" fill="rgb(247,114,51)"/>
<rect x="350" y="96" width="14" height="1" fill="rgb(247,114,51)"/>
<rect x="350" y="97" width="14" height="1" fill="rgb(247,114,51)"/>
<rect x="350" y="98" width="14" height="1" fill="rgb(247,114,51)"/>
<rect x="350" y="99" width="14" height="1" fill="rgb(247,114,52)"/>
<rect x="350" y="100" width="14" height="1" fill="rgb(247,114,52)"/>
<rect x="350" y="101" width="14" height="1" fill="rgb(247,115,52)"/>
<rect x="350" y="102" width="14" height="1" fill="rgb(247,115,52)"/>
<rect x="350" y="103" width="14" height="1" fill="rgb(247,115,52)"/>
<rect x="350" y="104" width="14" height="1" fill="rgb(248,115,52)"/>
<rect x="350" y="105" width="14" height="1" fill="rgb(248,115,52)"/>
<rect x="350" y="106" width="14" height="1" fill="rgb(248,115,52)"/>
<rect x="350" y="107" width="14" height="1" fill="rgb(248,116,52)"/>
<rect x="350" y="108" width="14" height="1" fill="rgb(248,116,52)"/>
<rect x="350" y="109" width="14" height="1" fill="rgb(248,116,52)"/>
<rect x="350" y="110" width="14" height="1" fill="rgb(248,116,52)"/>
<rect x="350" y="111" width="14" height="1" fill="rgb(248,116,52)"/>
<rect x="350" y="112" width="14" height="1" fill="rgb(248,116,52)"/>
<rect x="350" y="113" width="14" height="1" fill="rgb(248,116,52)"/>
<rect x="350" y="114" width="14" height="1" fill="rgb(248,117,52)"/>
<rect x="350" y="115" width="14" height="1" fill="rgb(248,117,52)"/>
<rect x="350" y="116" width="14" height="1" fill="rgb(248,117,52)"/>
<rect x="350" y="117" width="14" height="1" fill="rgb(248,117,52)"/>
<rect x="350" y="118" width="14" height="1" fill="rgb(248,117,52)"/>
<rect x="350" y="119" width="14" height="1" fill="rgb(248,117,52)"/>
<rect x="350" y="120" width="14" height="1" fill="rgb(249,118,53)"/>
<rect x="350" y="121" width="14" height="1" fill="rgb(249,118,53)"/>
<rect x="350" y="122" width="14" height="1" fill="rgb(249,118,53)"/>
<rect x="350" y="123" width="14" height="1" fill="rgb(249,118,53)"/>
<rect x="350" y="124" width="14" height="1" fill="rgb(249,118,53)"/>
<rect x="350" y="125" width="14" height="1" fill="rgb(249,118,53)"/>
<rect x="350" y="126" width="14" height="1" fill="rgb(249,118,53)"/>
<rect x="350" y="127" width="14" height="1" fill="rgb(249,119,53)"/>
<rect x="350" y="128" width="14" height="1" fill="rgb(249,119,53)"/>
<rect x="350" y="129" width="14" height="1" fill="rgb(249,119,53)"/>
<rect x="350" y="130" width="14" height="1" fill="rgb(249,119,53)"/>
<rect x="350" y="131" width="14" height="1" fill="rgb(249,119,53)"/>
<rect x="350" y="132" width="14" height="1" fill="rgb(249,119,53)"/>
<rect x="350" y="133" width="14" height="1" fill="rgb(249,120,53)"/>
<rect x="350" y="134" width="14" height="1" fill="rgb(249,120,53)"/>
<rect x="350" y="135" width="14" height="1" fill="rgb(249,120,53)"/>
<rect x="350" y="136" width="14" height="1" fill="rgb(250,120,53)"/>
<rect x="350" y="137" width="14" height="1" fill="rgb(250,120,53)"/>
<rect x="350" y="138" width="14" height="1" fill="rgb(250,120,53)"/>
<rect x="350" y="139" width="14" height="1" fill="rgb(250,121,53)"/>
<rect x="350" y="140" width="14" height="1" fill="rgb(250,121,53)"/>
<rect x="350" y="141" width="14" height="1" fill="rgb(250,121,54)"/>
<rect x="350" y="142" width="14" height="1" fill="rgb(250,121,54)"/>
<rect x="350" y="143" width="14" height="1" fill="rgb(250,121,54)"/>
<rect x="350" y="144" width="14" height="1" fill="rgb(250,121,54)"/>
<rect x="350" y="145" width="14" height="1" fill="rgb(250,121,54)"/>
<rect x="350" y="146" width="14" height="1" fill="rgb(250,122,54)"/>
<rect x="350" y="147" width="14" height="1" fill="rgb(250,122,54)"/>
<rect x="350" y="148" width="14" height="1" fill="rgb(250,122,54)"/>
<rect x="350" y="149" width="14" height="1" fill="rgb(250,122,54)"/>
<rect x="350" y="150" width="14" height="1" fill="rgb(250,122,54)"/>
<rect x="350" y="151" width="14" height="1" fill="rgb(250,122,54)"/>
<rect x="350" y="152" width="14" height="1" fill="rgb(251,123,54)"/>
<rect x="350" y="153" width="14" height="1" fill="rgb(251,123,54)"/>
<rect x="350" y="154" width="14" height="1" fill="rgb(251,123,54)"/>
<rect x="350" y="155" width="14" height="1" fill="rgb(251,123,54)"/>
<rect x="350" y="156" width="14" height="1" fill="rgb(251,123,54)"/>
<rect x="350" y="157" width="14" height="1" fill="rgb(251,123,54)"/>
<rect x="350" y="158" width="14" height="1" fill="rgb(251,124,54)"/>
<rect x="350" y="159" width="14" height="1" fill="rgb(251,124,54)"/>
<rect x="350" y="160" width="14" height="1" fill="rgb(251,124,54)"/>
<rect x="350" y="161" width="14" height="1" fill="rgb(251,124,54)"/>
<rect x="350" y="162" width="14" height="1" fill="rgb(251,124,54)"/>
<rect x="350" y="163" width="14" height="1" fill="rgb(251,124,55)"/>
<rect x="350" y="164" width="14" height="1" fill="rgb(251,124,55)"/>
<rect x="350" y="165" width="14" height="1" fill="rgb(251,125,55)"/>
<rect x="350" y="166" width="14" height="1" fill="rgb(251,125,55)"/>
<rect x="350" y="167" width="14" height="1" fill="rgb(251,125,55)"/>
<rect x="350" y="168" width="14" height="1" fill="rgb(252,125,55)"/>
<rect x="350" y="169" width="14" height="1" fill="rgb(252,125,55)"/>
<rect x="350" y="170" width="14" height="1" fill="rgb(252,125,55)"/>
<rect x="350" y="171" width="14" height="1" fill="rgb(252,126,55)"/>
<rect x="350" y="172" width="14" height="1" fill="rgb(252,126,55)"/>
<rect x="350" y="173" width="14" height="1" fill="rgb(252,126,55)"/>
<rect x="350" y="174" width="14" height="1" fill="rgb(252,126,55)"/>
<rect x="350" y="175" width="14" height="1" fill="rgb(252,126,55)"/>
<rect x="350" y="176" width="14" height="1" fill="rgb(252,126,55)"/>
<rect x="350" y="177" width="14" height="1" fill="rgb(252,126,55)"/>
<rect x="350" y="178" width="14" height="1" fill="rgb(252,127,55)"/>
<rect x="350" y="179" width="14" height="1" fill="rgb(252,127,55)"/>
<rect x="350" y="180" width="14" height="1" fill="rgb(252,127,55)"/>
<rect x="350" y="181" width="14" height="1" fill="rgb(252,127,55)"/>
<rect x="350" y="182" width="14" height="1" fill="rgb(252,127,55)"/>
<rect x="350" y="183" width="14" height="1" fill="rgb(252,127,55)"/>
<rect x="350" y="184" width="14" height="1" fill="rgb(253,128,56)"/>
<rect x="350" y="185" width="14" height="1" fill="rgb(253,129,58)"/>
<rect x="350" y="186" width="14" height="1" fill="rgb(253,130,59)"/>
<rect x="350" y="187" width="14" height="1" fill="rgb(253,131,61)"/>
<rect x="350" y="188" width="14" height="1" fill="rgb(253,132,63)"/>
<rect x="350" y="189" width="14" height="1" fill="rgb(253,133,64)"/>
<rect x="350" y="190" width="14" height="1" fill="rgb(253,134,66)"/>
<rect x="350" y="191" width="14" height="1" fill="rgb(253,135,67)"/>
<rect x="350" y="192" width="14" height="1" fill="rgb(253,136,69)"/>
<rect x="350" y="193" width="14" height="1" fill="rgb(253,137,70)"/>
<rect x="350" y="194" width="14" height="1" fill="rgb(253,138,72)"/>
<rect x="350" y="195" width="14" height="1" fill="rgb(253,139,73)"/>
<rect x="350" y="196" width="14" height="1" fill="rgb(253,140,75)"/>
<rect x="350" y="197" width="14" height="1" fill="rgb(253,141,77)"/>
<rect x="350" y="198" width="14" height="1" fill="rgb(253,142,78)"/>
<rect x="350" y="199" width="14" height="1" fill="rgb(253,143,80)"/>
<rect x="350" y="200" width="14" height="1" fill="rgb(253,144,81)"/>
<rect x="350" y="201" width="14" height="1" fill="rgb(253,145,83)"/>
<rect x="350" y="202" width="14" height="1" fill="rgb(253,146,84)"/>
<rect x="350" y="203" width="14" height="1" fill="rgb(253,147,86)"/>
<rect x="350" y="204" width="14" height="1" fill="rgb(253,148,87)"/>
<rect x="350" y="205" width="14" height="1" fill="rgb(253,149,89)"/>
<rect x="350" y="206" width="14" height="1" fill="rgb(253,150,91)"/>
<rect x="350" y="207" width="14" height="1" fill="rgb(253,151,92)"/>
<rect x="350" y="208" width="14" height="1" fill="rgb(253,152,94)"/>
<rect x="350" y="209" width="14" height="1" fill="rgb(253,153,95)"/>
<rect x="350" y="210" width="14" height="1" fill="rgb(253,154,97)"/>
<rect x="350" y="211" width="14" height="1" fill="rgb(253,155,98)"/>
<rect x="350" y="212" width="14" height="1" fill="rgb(253,156,100)"/>
<rect x="350" y="213" width="14" height="1" fill="rgb(253,157,102)"/>
<rect x="350" y="214" width="14" height="1" fill="rgb(253,158,103)"/>
<rect x="350" y="215" width="14" height="1" fill="rgb(253,159,105)"/>
<rect x="350" y="216" width="14" height="1" fill="rgb(253,160,106)"/>
<rect x="350" y="217" width="14" height="1" fill="rgb(253,161,108)"/>
<rect x="350" y="218" width="14" height="1" fill="rgb(253,162,109)"/>
<rect x="350" y="219" width="14" height="1" fill="rgb(253,163,111)"/>
<rect x="350" y="220" width="14" height="1" fill="rgb(253,164,112)"/>
<rect x="350" y="221" width="14" height="1" fill="rgb(253,165,114)"/>
<rect x="350" y="222" width="14" height="1" fill="rgb(253,166,116)"/>
<rect x="350" y="223" width="14" height="1" fill="rgb(253,167,117)"/>
<rect x="350" y="224" width="14" height="1" fill="rgb(253,168,119)"/>
<rect x="350" y="225" width="14" height="1" fill="rgb(253,169,120)"/>
<rect x="350" y="226" width="14" height="1" fill="rgb(253,170,122)"/>
<rect x="350" y="227" width="14" height="1" fill="rgb(253,171,123)"/>
<rect x="350" y="228" width="14" height="1" fill="rgb(253,172,125)"/>
<rect x="350" y="229" width="14" height="1" fill="rgb(253,173,127)"/>
<rect x="350" y="230" width="14" height="1" fill="rgb(253,174,128)"/>
<rect x="350" y="231" width="14" height="1" fill="rgb(253,175,130)"/>
<rect x="350" y="232" width="14" height="1" fill="rgb(253,176,131)"/>
<rect x="350" y="233" width="14" height="1" fill="rgb(253,177,133)"/>
<rect x="350" y="234" width="14" height="1" fill="rgb(253,178,134)"/>
<rect x="350" y="235" width="14" height="1" fill="rgb(253,179,136)"/>
<rect x="350" y="236" width="14" height="1" fill="rgb(253,180,137)"/>
<rect x="350" y="237" width="14" height="1" fill="rgb(253,181,139)"/>
<rect x="350" y="238" width="14" height="1" fill="rgb(253,182,141)"/>
<rect x="350" y="239" width="14" height="1" fill="rgb(253,183,142)"/>
<rect x="350" y="240" width="14" height="1" fill="rgb(253,184,144)"/>
<rect x="350" y="241" width="14" height="1" fill="rgb(253,185,145)"/>
<rect x="350" y="242" width="14" height="1" fill="rgb(253,186,147)"/>
<rect x="350" y="243" width="14" height="1" fill="rgb(253,187,148)"/>
<rect x="350" y="244" width="14" height="1" fill="rgb(253,188,150)"/>
<rect x="350" y="245" width="14" height="1" fill="rgb(253,189,151)"/>
<rect x="350" y="246" width="14" height="1" fill="rgb(253,190,153)"/>
<rect x="350" y="247" width="14" height="1" fill="rgb(253,191,155)"/>
<rect x="350" y="248" width="14" height="1" fill="rgb(254,192,156)"/>
<rect x="350" y="249" width="14" height="1" fill="rgb(254,193,158)"/>
<rect x="350" y="250" width="14" height="1" fill="rgb(254,194,159)"/>
<rect x="350" y="251" width="14" height="1" fill="rgb(254,195,161)"/>
<rect x="350" y="252" width="14" height="1" fill="rgb(254,196,162)"/>
<rect x="350" y="253" width="14" height="1" fill="rgb(254,197,164)"/>
<rect x="350" y="254" width="14" height="1" fill="rgb(254,198,166)"/>
<rect x="350" y="255" width="14" height="1" fill="rgb(254,199,167)"/>
<rect x="350" y="256" width="14" height="1" fill="rgb(254,200,169)"/>
<rect x="350" y="257" width="14" height="1" fill="rgb(254,201,170)"/>
<rect x="350" y="258" width="14" height="1" fill="rgb(254,202,172)"/>
<rect x="350" y="259" width="14" height="1" fill="rgb(254,203,173)"/>
<rect x="350" y="260" width="14" height="1" fill="rgb(254,204,175)"/>
<rect x="350" y="261" width="14" height="1" fill="rgb(254,205,176)"/>
<rect x="350" y="262" width="14" height="1" fill="rgb(254,206,178)"/>
<rect x="350" y="263" width="14" height="1" fill="rgb(254,207,180)"/>
<rect x="350" y="264" width="14" height="1" fill="rgb(254,208,181)"/>
<rect x="350" y="265" width="14" height="1" fill="rgb(254,209,183)"/>
<rect x="350" y="266" width="14" height="1" fill="rgb(254,210,184)"/>
<rect x="350" y="267" width="14" height="1" fill="rgb(254,211,186)"/>
<rect x="350" y="268" width="14" height="1" fill="rgb(254,212,187)"/>
<rect x="350" y="269" width="14" height="1" fill="rgb(254,213,189)"/>
<rect x="350" y="270" width="14" height="1" fill="rgb(254,214,191)"/>
<rect x="350" y="271" width="14" height="1" fill="rgb(254,215,192)"/>
<rect x="350" y="272" width="14" height="1" fill="rgb(254,216,194)"/>
<rect x="350" y="273" width="14" height="1" fill="rgb(254,217,195)"/>
<rect x="350" y="274" width="14" height="1" fill="rgb(254,218,197)"/>
<rect x="350" y="275" width="14" height="1" fill="rgb(254,219,198)"/>
<rect x="350" y="276" width="14" height="1" fill="rgb(254,220,200)"/>
<rect x="350" y="277" width="14" height="1" fill="rgb(254,221,201)"/>
<rect x="350" y="278" width="14" height="1" fill="rgb(254,222,203)"/>
<rect x="350" y="279" width="14" height="1" fill="rgb(254,223,205)"/>
<rect x="350" y="280" width="14" height="1" fill="rgb(254,224,206)"/>
<rect x="350" y="281" width="14" height="1" fill="rgb(254,225,208)"/>
<rect x="350" y="282" width="14" height="1" fill="rgb(254,226,209)"/>
<rect x="350" y="283" width="14" height="1" fill="rgb(254,227,211)"/>
<rect x="350" y="284" width="14" height="1" fill="rgb(254,228,212)"/>
<rect x="350" y="285" width="14" height="1" fill="rgb(254,229,214)"/>
<rect x="350" y="286" width="14" height="1" fill="rgb(254,230,215)"/>
<rect x="350" y="287" width="14" height="1" fill="rgb(254,231,217)"/>
<rect x="350" y="288" width="14" height="1" fill="rgb(254,232,219)"/>
<rect x="350" y="289" width="14" height="1" fill="rgb(254,233,220)"/>
<rect x="350" y="290" width="14" height="1" fill="rgb(254,234,222)"/>
<rect x="350" y="291" width="14" height="1" fill="rgb(254,235,223)"/>
<rect x="350" y="292" width="14" height="1" fill="rgb(254,236,225)"/>
<rect x="350" y="293" width="14" height="1" fill="rgb(254,237,226)"/>
<rect x="350" y="294" width="14" height="1" fill="rgb(254,238,228)"/>
<rect x="350" y="295" width="14" height="1" fill="rgb(254,239,230)"/>
<rect x="350" y="296" width="14" height="1" fill="rgb(254,240,231)"/>
<rect x="350" y="297" width="14" height="1" fill="rgb(254,241,233)"/>
<rect x="350" y="298" width="14" height="1" fill="rgb(254,242,234)"/>
<rect x="350" y="299" width="14" height="1" fill="rgb(254,243,236)"/>
<rect x="350" y="300" width="14" height="1" fill="rgb(254,244,237)"/>
<rect x="350" y="301" width="14" height="1" fill="rgb(254,245,239)"/>
<rect x="350" y="302" width="14" height="1" fill="rgb(254,246,240)"/>
<rect x="350" y="303" width="14" height="1" fill="rgb(254,247,242)"/>
<rect x="350" y="304" width="14" height="1" fill="rgb(254,248,244)"/>
<rect x="350" y="305" width="14" height="1" fill="rgb(254,249,245)"/>
<rect x="350" y="306" width="14" height="1" fill="rgb(254,250,247)"/>
<rect x="350" y="307" width="14" height="1" fill="rgb(254,251,248)"/>
<rect x="350" y="308" width="14" height="1" fill="rgb(254,252,250)"/>
<rect x="350" y="309" width="14" height="1" fill="rgb(254,253,251)"/>
<rect x="350" y="310" width="14" height="1" fill="rgb(254,254,253)"/>
<rect x="350" y="311" width="14" height="1" fill="rgb(255,255,255)"/>
<text x="370" y="62" class="sub">19%</text>
<text x="370" y="312" class="sub">0%</text>
</svg>